<svg width="30" height="30" viewBox="0 0 30 30" fill="none" xmlns="http://www.w3.org/2000/svg"><path d="M2.25977 14.4315H3.6763C3.71257 14.1029 3.76803 13.7765 3.83203 13.4544C3.98137 12.7269 4.20323 12.0059 4.4955 11.3211C4.78137 10.6448 5.13123 9.99625 5.5451 9.38399C5.95257 8.78025 6.4219 8.21279 6.93603 7.69652C7.45017 7.18238 8.01977 6.71305 8.6235 6.30559C9.22937 5.89385 9.88003 5.54185 10.5606 5.25599C11.2454 4.96585 11.9664 4.74399 12.6939 4.59252C13.0139 4.52852 13.3424 4.47732 13.671 4.43679V3.01172C7.6635 3.63039 2.87417 8.41332 2.25977 14.4315ZM26.3195 17.0725C26.2832 17.4011 26.2278 17.7275 26.1638 18.0496C26.0144 18.7771 25.7926 19.4981 25.5003 20.1829C25.2144 20.8592 24.8646 21.5077 24.4507 22.12C24.0432 22.7237 23.5739 23.2912 23.0598 23.8075C22.5456 24.3216 21.976 24.7909 21.3723 25.1984C20.7664 25.6101 20.1158 25.9621 19.4352 26.248C18.7504 26.5381 18.0294 26.76 17.3019 26.9115C16.9819 26.9755 16.6534 27.0267 16.3248 27.0672V28.4837C22.3408 27.8693 27.1302 23.0821 27.7424 17.0661L26.3195 17.0725ZM10.5606 26.2501C9.8843 25.9643 9.23577 25.6144 8.6235 25.2005C8.01977 24.7931 7.4523 24.3237 6.93603 23.8096C6.4219 23.2955 5.95043 22.7237 5.54083 22.12C5.1291 21.5141 4.7771 20.8635 4.49123 20.1829C4.2011 19.4981 3.97923 18.7771 3.82777 18.0496C3.76377 17.7296 3.71257 17.4011 3.67203 17.0725H2.25977C2.87417 23.0885 7.66137 27.8779 13.6774 28.4901V27.0736C13.3488 27.0373 13.0224 26.9819 12.7003 26.9179C11.9686 26.7685 11.2454 26.5424 10.5606 26.2501ZM16.3184 3.01385V4.43039C16.647 4.46665 16.9734 4.52212 17.2955 4.58612C18.023 4.73545 18.744 4.95732 19.4288 5.24959C20.1051 5.53545 20.7536 5.88532 21.3659 6.29919C21.9696 6.70665 22.5371 7.17599 23.0534 7.69012C23.5675 8.20425 24.0368 8.77385 24.4443 9.37759C24.856 9.98345 25.208 10.6341 25.4939 11.3147C25.784 11.9995 26.0059 12.7205 26.1574 13.448C26.2214 13.768 26.2726 14.0965 26.3131 14.4251H27.7318C27.1195 8.41332 22.3366 3.63039 16.3184 3.01385Z" fill="white"/><path d="M11.2545 21.186H7.7793V18.1289H14.3094L11.2545 21.186Z" fill="white"/><path d="M22.2169 18.1137H14.3086C16.171 16.2449 17.1438 15.0566 19.8382 15.0566H22.2169V18.1137Z" fill="white"/><path d="M18.7424 10.3164H22.2176V13.3735H15.6875L18.7424 10.3164Z" fill="white"/><path d="M7.7793 13.3887H15.6854C13.823 15.2575 12.8502 16.4457 10.1558 16.4457H7.7793V13.3887Z" fill="white"/></svg>
