<svg xmlns="http://www.w3.org/2000/svg" width="47.137" height="36.515" viewBox="0 0 47.137 36.515">
  <g id="Group_5" data-name="Group 5" transform="translate(-91.385 -97.772)">
    <g id="Group_4" data-name="Group 4" transform="translate(91.385 97.772)">
      <g id="Group_3" data-name="Group 3">
        <g id="Laag_1" data-name="Laag 1">
          <g id="Group_2" data-name="Group 2">
            <g id="Group_1" data-name="Group 1">
              <path id="Path_1" data-name="Path 1" d="M158.263,148.682l-.115.119a7.181,7.181,0,0,1-2.444,1.618l-.047,0a7.343,7.343,0,0,1-2.647.5,8.57,8.57,0,0,1-3.835-.831l-.072,0-.176-.092-.05-.028a6.454,6.454,0,0,1-2.62-2.614l-.114-.2-2.449,2.629s-.49,2.514-.707,3.747l0,.083.059.06h0l.035.038a13.16,13.16,0,0,0,9.718,4.283l.2.01.16.008a14.313,14.313,0,0,0,6.915-1.792l.064-.033a14.253,14.253,0,0,0,3.17-2.432l.115-.119Z" transform="translate(-116.277 -121.596)" fill="#3cc194"/>
              <path id="Path_2" data-name="Path 2" d="M105.587,120.362l0,.047,1,3.735.2-.321a7.244,7.244,0,0,1,4.577-3.008l.083,0a7.927,7.927,0,0,1,1.987-.154,6.9,6.9,0,0,1,2.86.833l.071.04a11.011,11.011,0,0,1,3.166,2.673l.141.183,2.343-3.3h0l.751-3.486-.08-.061-.269-.231a14.484,14.484,0,0,0-5.336-3.124,12.106,12.106,0,0,0-3.291-.518l-.052,0a15.194,15.194,0,0,0-7.192,1.84l-.069.038-.99,4.428Z" transform="translate(-98.191 -105.443)" fill="#3cc194"/>
              <path id="Path_3" data-name="Path 3" d="M120.746,122.213l0-.067c.014-.274-.046-1.35-.061-1.978L120.7,120a7.132,7.132,0,0,1,1.542-4.586l.034-.045c.149-.189.308-.368.478-.546a7.184,7.184,0,0,1,5.136-2.182,7.9,7.9,0,0,1,.925.047l.052,0a7.418,7.418,0,0,1,4.219,2.052l.118.12,4.962-5-.118-.12a14.614,14.614,0,0,0-9.293-4.095l-.052,0-.941-.048a15.677,15.677,0,0,0-6.107,1.18,11.866,11.866,0,0,0-3.472,2.256l-.054.049-.062,0,0,.031-.038.034h0l-.054.049a11.194,11.194,0,0,0-.983,1.106l0,.031-.8,3.494-2.645,3.65v2.55a7.36,7.36,0,0,1-4.192,6.588l-.048.023a7.192,7.192,0,0,1-2.955.639,7.381,7.381,0,0,1-7.438-7.168l-.036-2.376.008-.155-1.3-5.1,1.1-4.733-.117-7.437-7.185-2.538.276,16.447,0,.072.094,5.855a5.789,5.789,0,0,0,.027.6.754.754,0,0,0-.005.108,14.293,14.293,0,0,0,5.414,10.222l.05.039a14.668,14.668,0,0,0,9.195,3.173l.519-.01.109.006a13.414,13.414,0,0,0,9.028-3.52l.043-.039c.337-.325.66-.666.969-1.029l.027-.035.772-4.107,2.838-3.257Z" transform="translate(-91.385 -97.772)" fill="#3cc194"/>
            </g>
          </g>
        </g>
      </g>
    </g>
  </g>
</svg>
