<svg id="svg" version="1.1" xmlns="http://www.w3.org/2000/svg" xmlns:xlink="http://www.w3.org/1999/xlink" width="400" height="400.3703703703704" viewBox="0, 0, 400,400.3703703703704"><g id="svgg"><path id="path0" d="M66.759 199.352 L 66.852 292.778 84.630 292.778 L 102.407 292.778 102.501 246.957 L 102.595 201.137 105.837 197.883 C 116.179 187.500,129.094 183.760,143.760 186.899 C 144.688 187.098,144.774 186.991,145.342 184.944 C 148.121 174.926,154.786 164.204,162.199 157.823 L 164.739 155.637 162.647 155.233 C 142.203 151.285,120.323 157.545,105.856 171.481 L 102.588 174.630 102.590 140.278 L 102.593 105.926 84.629 105.926 L 66.665 105.926 66.759 199.352 M209.259 124.936 L 209.259 143.946 211.724 144.400 C 222.396 146.367,233.091 152.301,241.433 160.885 C 243.138 162.639,244.596 164.074,244.674 164.074 C 244.751 164.074,244.815 150.991,244.815 135.000 L 244.815 105.926 227.037 105.926 L 209.259 105.926 209.259 124.936 M277.363 179.326 C 254.767 205.869,257.201 202.650,256.901 206.387 C 255.013 229.905,235.662 251.315,212.037 256.026 L 209.444 256.543 209.348 274.757 L 209.252 292.970 226.941 292.874 L 244.630 292.778 244.815 275.290 L 245.000 257.802 252.944 249.271 C 257.313 244.579,261.003 240.865,261.143 241.018 C 261.284 241.171,269.187 252.630,278.706 266.481 C 288.224 280.333,296.269 291.958,296.582 292.315 C 297.184 293.000,341.116 293.365,341.108 292.685 C 341.106 292.532,328.779 275.907,313.715 255.741 C 298.650 235.574,286.319 218.991,286.313 218.889 C 286.306 218.787,298.139 205.131,312.607 188.541 C 327.076 171.952,339.095 158.161,339.317 157.893 C 339.649 157.493,335.858 157.407,317.871 157.407 L 296.023 157.407 277.363 179.326 M195.127 177.778 L 192.420 185.926 187.522 185.926 L 182.625 185.926 181.683 188.908 C 181.165 190.548,180.741 191.965,180.741 192.056 C 180.741 192.147,182.824 192.222,185.370 192.222 C 188.846 192.222,189.991 192.338,189.965 192.685 C 189.945 192.940,188.737 196.731,187.280 201.111 L 184.630 209.074 179.848 209.259 L 175.066 209.444 174.040 212.500 L 173.014 215.556 177.618 215.556 C 180.150 215.556,182.222 215.685,182.222 215.843 C 182.222 216.001,181.056 219.622,179.630 223.889 C 178.204 228.156,177.037 231.693,177.037 231.749 C 177.037 231.806,178.691 231.852,180.713 231.852 L 184.389 231.852 187.096 223.704 L 189.802 215.556 194.531 215.556 C 197.219 215.556,199.259 215.705,199.259 215.902 C 199.259 216.093,198.093 219.634,196.668 223.772 C 195.243 227.911,194.077 231.421,194.076 231.574 C 194.075 231.727,195.702 231.852,197.691 231.852 L 201.309 231.852 204.012 223.714 L 206.715 215.576 211.749 215.473 L 216.782 215.370 217.423 213.483 C 217.776 212.445,218.180 211.070,218.321 210.428 L 218.577 209.259 213.980 209.259 C 211.452 209.259,209.288 209.165,209.173 209.049 C 209.058 208.934,210.211 205.101,211.736 200.531 L 214.508 192.222 219.402 192.222 L 224.296 192.222 225.111 189.452 C 225.559 187.929,225.926 186.512,225.926 186.304 C 225.926 186.067,224.208 185.926,221.324 185.926 L 216.722 185.926 219.449 177.765 L 222.175 169.604 218.432 169.710 L 214.690 169.815 212.037 177.778 L 209.384 185.741 204.692 185.844 C 202.111 185.901,200.000 185.814,200.000 185.649 C 200.000 185.485,201.167 181.859,202.593 177.593 C 204.019 173.326,205.185 169.789,205.185 169.732 C 205.185 169.676,203.531 169.630,201.509 169.630 L 197.833 169.630 195.127 177.778 M206.946 192.685 C 206.852 192.940,205.571 196.773,204.098 201.204 L 201.420 209.259 196.778 209.259 C 192.535 209.259,192.151 209.203,192.316 208.611 C 192.414 208.255,193.636 204.421,195.030 200.093 L 197.564 192.222 202.340 192.222 C 206.005 192.222,207.077 192.330,206.946 192.685 M158.519 266.066 L 158.519 292.963 176.296 292.963 L 194.074 292.963 194.074 275.007 L 194.074 257.051 193.241 256.885 C 192.782 256.794,190.921 256.444,189.104 256.106 C 178.826 254.197,169.096 249.148,161.024 241.533 L 158.519 239.170 158.519 266.066 " stroke="none" fill="#f8e004" fill-rule="evenodd"></path><path id="path1" d="M0.000 200.185 L 0.000 400.370 200.000 400.370 L 400.000 400.370 400.000 200.185 L 400.000 0.000 200.000 0.000 L 0.000 0.000 0.000 200.185 M102.593 139.976 L 102.593 174.397 105.317 171.708 C 114.378 162.764,127.021 156.594,140.345 154.615 C 146.961 153.632,162.488 154.161,164.558 155.440 C 164.737 155.551,163.455 156.966,161.708 158.585 C 154.296 165.456,148.474 174.785,145.888 183.934 C 144.849 187.610,145.034 187.457,142.407 186.822 C 129.420 183.681,114.780 188.394,105.187 198.804 L 102.593 201.620 102.593 247.292 L 102.593 292.963 84.630 292.963 L 66.667 292.963 66.667 199.259 L 66.667 105.556 84.630 105.556 L 102.593 105.556 102.593 139.976 M244.815 135.211 L 244.815 164.867 242.612 162.341 C 234.798 153.378,223.351 146.894,211.019 144.445 L 208.889 144.022 208.889 125.035 C 208.889 114.593,209.000 105.938,209.136 105.802 C 209.272 105.667,217.355 105.556,227.099 105.556 L 244.815 105.556 244.815 135.211 M339.009 158.611 C 333.345 164.610,286.669 218.730,286.819 219.123 C 286.925 219.399,299.268 236.048,314.247 256.121 C 329.226 276.193,341.481 292.696,341.481 292.793 C 341.481 292.889,331.378 292.926,319.030 292.873 L 296.579 292.778 279.493 267.952 C 270.096 254.298,262.066 242.658,261.648 242.087 L 260.889 241.048 252.852 249.652 L 244.815 258.256 244.815 275.610 L 244.815 292.963 226.852 292.963 L 208.889 292.963 208.889 274.713 L 208.889 256.463 212.052 255.812 C 236.231 250.835,254.270 230.554,256.869 205.424 C 257.119 203.005,257.238 202.758,259.399 200.180 C 260.646 198.692,269.333 188.462,278.704 177.446 L 295.741 157.417 317.943 157.412 L 340.145 157.407 339.009 158.611 M204.989 171.019 C 204.699 171.986,203.541 175.522,202.416 178.876 C 201.291 182.230,200.370 185.105,200.370 185.265 C 200.370 185.425,202.358 185.556,204.787 185.556 L 209.204 185.556 211.910 177.407 L 214.617 169.259 218.420 169.259 C 223.025 169.259,222.898 168.364,219.630 177.804 C 218.204 181.923,217.037 185.352,217.037 185.424 C 217.037 185.496,219.138 185.556,221.707 185.556 L 226.377 185.556 226.127 186.574 C 225.990 187.134,225.539 188.718,225.125 190.093 L 224.372 192.593 219.494 192.593 L 214.616 192.593 212.070 200.278 C 210.670 204.505,209.447 208.171,209.352 208.426 C 209.220 208.781,210.306 208.889,214.034 208.889 C 217.688 208.889,218.881 209.003,218.857 209.352 C 218.840 209.606,218.382 211.148,217.839 212.778 L 216.852 215.741 211.842 215.843 L 206.833 215.946 204.129 224.084 L 201.426 232.222 197.565 232.222 C 195.441 232.222,193.704 232.176,193.704 232.120 C 193.704 232.063,194.870 228.526,196.296 224.259 C 197.722 219.992,198.889 216.367,198.889 216.202 C 198.889 216.038,196.861 215.950,194.382 216.007 L 189.875 216.111 187.223 224.074 L 184.570 232.037 181.109 232.144 C 179.205 232.203,177.437 232.171,177.178 232.071 C 176.836 231.940,177.405 229.808,179.280 224.196 C 180.695 219.964,181.852 216.372,181.852 216.214 C 181.852 216.055,179.852 215.926,177.407 215.926 C 172.302 215.926,172.574 216.238,173.962 211.977 L 174.961 208.909 179.778 208.807 L 184.595 208.704 187.098 201.111 C 188.475 196.935,189.607 193.310,189.615 193.056 C 189.626 192.710,188.506 192.593,185.207 192.593 C 179.976 192.593,180.221 192.834,181.449 188.889 L 182.428 185.741 187.387 185.556 L 192.345 185.370 194.875 177.778 C 196.267 173.602,197.484 169.977,197.580 169.722 C 197.704 169.392,198.871 169.259,201.635 169.259 L 205.516 169.259 204.989 171.019 M197.653 192.870 C 197.411 193.271,192.593 208.242,192.593 208.594 C 192.593 208.756,194.579 208.889,197.006 208.889 L 201.420 208.889 204.043 201.018 C 205.486 196.690,206.667 193.023,206.667 192.870 C 206.667 192.507,197.873 192.507,197.653 192.870 M161.827 241.953 C 169.368 249.129,179.130 254.024,190.000 256.078 L 194.259 256.883 194.355 274.923 L 194.451 292.963 176.300 292.963 L 158.148 292.963 158.148 265.926 C 158.148 251.056,158.251 238.889,158.378 238.889 C 158.504 238.889,160.056 240.268,161.827 241.953 " stroke="none" fill="#040404" fill-rule="evenodd"></path><path id="path2" d="M209.061 124.815 C 209.061 135.306,209.108 139.597,209.166 134.352 C 209.224 129.106,209.224 120.523,209.166 115.278 C 209.108 110.032,209.061 114.324,209.061 124.815 M199.537 169.532 C 200.606 169.607,202.356 169.607,203.426 169.532 C 204.495 169.457,203.620 169.396,201.481 169.396 C 199.343 169.396,198.468 169.457,199.537 169.532 M214.686 169.537 C 214.591 169.690,215.706 169.769,217.164 169.714 C 221.928 169.532,222.478 169.385,218.633 169.322 C 216.557 169.287,214.781 169.384,214.686 169.537 M105.926 197.593 C 105.026 198.509,104.374 199.259,104.475 199.259 C 104.577 199.259,105.397 198.509,106.296 197.593 C 107.196 196.676,107.849 195.926,107.747 195.926 C 107.645 195.926,106.826 196.676,105.926 197.593 M209.184 208.960 C 209.327 209.101,211.562 209.268,214.150 209.331 C 216.737 209.393,218.737 209.329,218.594 209.188 C 218.451 209.047,216.216 208.880,213.628 208.817 C 211.040 208.755,209.040 208.819,209.184 208.960 M175.056 209.167 C 174.961 209.319,176.326 209.400,178.090 209.345 C 184.008 209.162,184.665 209.023,179.929 208.956 C 177.344 208.919,175.151 209.014,175.056 209.167 M194.552 209.164 C 195.936 209.235,198.103 209.235,199.367 209.163 C 200.632 209.091,199.500 209.032,196.852 209.033 C 194.204 209.033,193.169 209.092,194.552 209.164 M240.370 240.556 C 239.471 241.472,238.818 242.222,238.920 242.222 C 239.022 242.222,239.841 241.472,240.741 240.556 C 241.640 239.639,242.293 238.889,242.191 238.889 C 242.089 238.889,241.270 239.639,240.370 240.556 M209.059 256.759 C 208.961 257.014,208.925 265.222,208.978 275.000 L 209.074 292.778 209.259 274.537 C 209.361 264.504,209.398 256.296,209.340 256.296 C 209.283 256.296,209.156 256.505,209.059 256.759 " stroke="none" fill="#7c7404" fill-rule="evenodd"></path><path id="path3" d="" stroke="none" fill="#5f5704" fill-rule="evenodd"></path><path id="path4" d="M75.437 105.833 C 80.363 105.891,88.530 105.891,93.585 105.833 C 98.641 105.775,94.611 105.727,84.630 105.727 C 74.648 105.727,70.512 105.775,75.437 105.833 M218.056 105.833 C 222.995 105.891,231.079 105.891,236.019 105.833 C 240.958 105.775,236.917 105.727,227.037 105.727 C 217.157 105.727,213.116 105.775,218.056 105.833 M104.983 171.944 L 103.519 173.519 105.093 172.054 C 106.556 170.693,106.837 170.370,106.557 170.370 C 106.496 170.370,105.788 171.079,104.983 171.944 M187.407 185.556 L 182.407 185.774 187.293 185.850 C 190.236 185.896,192.270 185.779,192.407 185.556 C 192.533 185.352,192.585 185.219,192.522 185.261 C 192.459 185.303,190.157 185.436,187.407 185.556 M199.999 185.648 C 200.000 185.801,202.125 185.897,204.722 185.861 C 209.559 185.795,208.993 185.645,203.240 185.470 C 201.457 185.415,199.999 185.495,199.999 185.648 M219.367 185.831 C 220.751 185.902,222.917 185.901,224.182 185.829 C 225.447 185.757,224.315 185.699,221.667 185.699 C 219.019 185.700,217.984 185.759,219.367 185.831 M180.665 192.293 C 181.011 192.633,190.002 192.852,190.001 192.521 C 190.000 192.379,187.841 192.212,185.202 192.150 C 182.564 192.088,180.522 192.152,180.665 192.293 M197.649 192.500 C 197.553 192.653,198.919 192.733,200.682 192.679 C 206.339 192.504,206.974 192.353,202.337 192.287 C 199.853 192.251,197.744 192.347,197.649 192.500 M217.130 192.497 C 218.505 192.568,220.755 192.568,222.130 192.497 C 223.505 192.426,222.380 192.367,219.630 192.367 C 216.880 192.367,215.755 192.426,217.130 192.497 M174.259 215.799 C 177.782 216.070,182.224 216.089,182.223 215.833 C 182.223 215.681,180.097 215.585,177.500 215.620 C 174.903 215.656,173.444 215.736,174.259 215.799 M189.872 215.833 C 189.778 215.986,191.851 216.111,194.480 216.111 C 197.109 216.111,199.259 215.986,199.259 215.833 C 199.259 215.681,197.186 215.556,194.651 215.556 C 192.117 215.556,189.966 215.681,189.872 215.833 M209.352 215.830 C 210.727 215.901,212.977 215.901,214.352 215.830 C 215.727 215.759,214.602 215.701,211.852 215.701 C 209.102 215.701,207.977 215.759,209.352 215.830 M176.909 231.944 C 177.003 232.097,178.728 232.222,180.741 232.222 C 182.754 232.222,184.478 232.097,184.572 231.944 C 184.667 231.792,182.943 231.667,180.741 231.667 C 178.539 231.667,176.815 231.792,176.909 231.944 M195.662 232.126 C 196.840 232.200,198.674 232.199,199.736 232.124 C 200.798 232.050,199.833 231.990,197.593 231.990 C 195.352 231.991,194.483 232.052,195.662 232.126 M158.238 266.019 L 158.328 293.148 158.426 266.131 L 158.523 239.114 160.095 240.575 L 161.667 242.037 160.203 240.463 C 159.397 239.597,158.606 238.889,158.443 238.889 C 158.281 238.889,158.189 251.097,158.238 266.019 M194.246 275.000 C 194.246 284.981,194.293 289.012,194.352 283.956 C 194.410 278.900,194.410 270.733,194.351 265.808 C 194.293 260.882,194.246 265.019,194.246 275.000 " stroke="none" fill="#3c3c04" fill-rule="evenodd"></path></g></svg>