<?xml version="1.0" standalone="no"?>
<!DOCTYPE svg PUBLIC "-//W3C//DTD SVG 20010904//EN"
 "http://www.w3.org/TR/2001/REC-SVG-20010904/DTD/svg10.dtd">
<svg version="1.0" xmlns="http://www.w3.org/2000/svg"
 width="1080.000000pt" height="1081.000000pt" viewBox="0 0 1080.000000 1081.000000"
 preserveAspectRatio="xMidYMid meet">
<metadata>
Created by potrace 1.16, written by Peter Selinger 2001-2019
</metadata>
<g transform="translate(0.000000,1081.000000) scale(0.100000,-0.100000)"
fill="#000000" stroke="none">
<path d="M0 5405 l0 -5405 5400 0 5400 0 0 5405 0 5405 -5400 0 -5400 0 0
-5405z m2770 1619 l0 -926 97 92 c201 190 465 334 738 404 250 63 556 73 792
25 l52 -10 -67 -61 c-206 -186 -355 -417 -438 -676 l-38 -118 -50 15 c-81 23
-400 22 -491 -3 -186 -50 -356 -150 -500 -296 l-90 -90 -5 -1238 -5 -1237
-480 0 -480 0 -3 2523 -2 2522 485 0 485 0 0 -926z m3840 137 l0 -788 -117
116 c-65 64 -158 144 -208 177 -169 115 -389 210 -567 245 l-68 13 0 513 0
513 480 0 480 0 0 -789z m2548 -618 c-49 -58 -1385 -1593 -1405 -1614 l-25
-27 723 -968 c397 -533 733 -984 747 -1002 l24 -32 -603 0 -604 0 -485 706
-485 705 -25 -29 c-14 -16 -110 -120 -215 -232 l-190 -202 -5 -472 -5 -471
-478 -3 -477 -2 2 491 3 492 100 22 c380 86 737 339 957 681 116 181 209 454
225 665 l6 78 524 615 524 616 591 0 c562 0 590 -1 576 -17z m-3622 -328 c-3
-8 -33 -101 -67 -207 -34 -106 -64 -199 -67 -206 -3 -10 23 -12 124 -10 l128
3 70 218 70 217 102 0 103 0 -70 -207 c-38 -114 -69 -213 -69 -220 0 -9 33
-13 123 -15 l123 -3 -24 -82 -25 -83 -131 0 -131 0 -73 -218 c-39 -120 -72
-223 -72 -230 0 -9 34 -12 129 -12 l128 0 -26 -85 -26 -85 -135 0 -135 0 -73
-220 -73 -220 -100 0 c-54 0 -99 3 -99 8 0 4 32 102 70 217 39 115 70 211 70
213 0 1 -57 1 -127 0 l-126 -3 -72 -215 -72 -215 -101 -3 c-56 -1 -102 -1
-102 0 0 2 32 98 70 213 39 115 70 213 70 217 0 4 -55 9 -123 10 l-123 3 24
82 25 82 130 3 130 3 74 220 c40 121 73 223 73 227 0 5 -56 8 -125 8 -69 0
-125 3 -125 8 0 4 11 41 23 82 l24 75 134 5 134 5 66 202 c37 112 69 210 73
218 4 12 26 15 107 15 85 0 100 -2 95 -15z m-1048 -2045 c190 -142 439 -248
667 -283 l80 -13 3 -487 2 -487 -480 0 -480 0 0 726 0 726 72 -67 c39 -36 101
-88 136 -115z"/>
<path d="M5335 5608 c-17 -45 -145 -434 -145 -440 0 -5 56 -8 124 -8 l124 0
73 218 c39 119 74 223 77 230 3 9 -25 12 -122 12 -92 0 -128 -3 -131 -12z"/>
</g>
</svg>
