<?xml version="1.0" encoding="UTF-8" standalone="no"?>
<svg
   width="399.99997"
   height="399.99979"
   viewBox="0 0 399.99997 399.99979"
   fill="none"
   version="1.1"
   id="svg18"
   sodipodi:docname="inj.svg"
   inkscape:version="1.1.1 (c3084ef, 2021-09-22)"
   xmlns:inkscape="http://www.inkscape.org/namespaces/inkscape"
   xmlns:sodipodi="http://sodipodi.sourceforge.net/DTD/sodipodi-0.dtd"
   xmlns="http://www.w3.org/2000/svg"
   xmlns:svg="http://www.w3.org/2000/svg">
  <sodipodi:namedview
     id="namedview20"
     pagecolor="#ffffff"
     bordercolor="#666666"
     borderopacity="1.0"
     inkscape:pageshadow="2"
     inkscape:pageopacity="0.0"
     inkscape:pagecheckerboard="0"
     showgrid="false"
     inkscape:zoom="1.2966667"
     inkscape:cx="200.12853"
     inkscape:cy="199.74293"
     inkscape:window-width="1310"
     inkscape:window-height="958"
     inkscape:window-x="0"
     inkscape:window-y="25"
     inkscape:window-maximized="0"
     inkscape:current-layer="svg18" />
  <path
     d="m 48.497028,69.135056 c 2.484,-3.122 5.116,-6.126 7.748,-9.13 0.118,-0.149 0.385,-0.179 0.503,-0.328 0.237,-0.297 0.622,-0.476 0.858,-0.774 l 0.237,-0.297 c 1.835,-1.696 3.787,-3.542 6.038,-5.15 7.964,-6.046 16.229,-10.639 24.944,-13.661 27.953002,-9.814 59.069002,-3.766 83.470002,19.27 34.071,31.937 31.02,83.386004 3.822,117.582004 -34.369,50.978 -93.433002,122.101 -11.654,185.813 14.704,11.456 25.612,20.901 71.929,34.286 -30.292,5.58 -58.38,3.844 -89.644,-4.141 -22.114,-12.482 -56.882002,-39.208 -68.711002,-75.305 -17.878,-54.738 31.476002,-136.568 55.328002,-168.084 32.748,-43.617 -20.241,-90.834004 -59.253002,-38.121 -20.392,27.471 -56.068,105.208 -43.67,162.87 7.249,32.699 16.911,56.534 55.221,89.276 -7.104,-4.192 -14.003,-8.947 -20.695,-14.267 -89.011,-82.914 -78.6842,-211.115 -16.471,-279.839004 z"
     fill="url(#paint0_linear)"
     id="path2"
     style="fill:url(#paint0_linear)" />
  <path
     d="m 351.50303,330.86506 c -2.484,3.122 -5.116,6.126 -7.748,9.13 -0.118,0.149 -0.385,0.179 -0.503,0.328 -0.237,0.297 -0.622,0.476 -0.858,0.774 l -0.237,0.297 c -1.835,1.696 -3.787,3.542 -6.038,5.15 -7.964,6.046 -16.229,10.639 -24.944,13.661 -27.953,9.814 -59.069,3.766 -83.47,-19.27 -34.071,-31.937 -31.02,-83.386 -3.822,-117.582 34.369,-50.978 93.433,-122.101 11.654,-185.813004 -14.704,-11.456 -25.612,-20.901 -71.929,-34.2859998 30.292,-5.5804 58.38,-3.84449997 89.643,4.141 22.115,12.4819998 56.883,39.2079998 68.712,75.3049998 17.878,54.738004 -31.476,136.568004 -55.328,168.084004 -32.748,43.617 20.241,90.834 59.253,38.121 20.392,-27.471 56.068,-105.208 43.67,-162.87 -7.249,-32.699004 -16.911,-56.534004 -55.221,-89.276004 7.104,4.192 14.003,8.947 20.695,14.267 89.011,82.914004 78.684,211.115004 16.471,279.839004 z"
     fill="url(#paint1_linear)"
     id="path4"
     style="fill:url(#paint1_linear)" />
  <defs
     id="defs16">
    <linearGradient
       id="paint0_linear"
       x1="100"
       y1="300"
       x2="500"
       y2="300"
       gradientUnits="userSpaceOnUse"
       gradientTransform="translate(-99.999972,-99.999944)">
      <stop
         stop-color="#0082FA"
         id="stop6" />
      <stop
         offset="1"
         stop-color="#00F2FE"
         id="stop8" />
    </linearGradient>
    <linearGradient
       id="paint1_linear"
       x1="100"
       y1="300"
       x2="500"
       y2="300"
       gradientUnits="userSpaceOnUse"
       gradientTransform="translate(-99.999972,-99.999944)">
      <stop
         stop-color="#0082FA"
         id="stop11" />
      <stop
         offset="1"
         stop-color="#00F2FE"
         id="stop13" />
    </linearGradient>
  </defs>
</svg>
