<?xml version="1.0" encoding="UTF-8" standalone="no"?>
<svg
   xmlns:osb="http://www.openswatchbook.org/uri/2009/osb"
   xmlns:dc="http://purl.org/dc/elements/1.1/"
   xmlns:cc="http://creativecommons.org/ns#"
   xmlns:rdf="http://www.w3.org/1999/02/22-rdf-syntax-ns#"
   xmlns:svg="http://www.w3.org/2000/svg"
   xmlns="http://www.w3.org/2000/svg"
   xmlns:xlink="http://www.w3.org/1999/xlink"
   id="svg8"
   version="1.1"
   viewBox="0 0 1000 1000"
   height="1000mm"
   width="1000mm">
  <defs
     id="defs2">
    <linearGradient
       osb:paint="gradient"
       id="linearGradient982">
      <stop
         id="stop978"
         offset="0"
         style="stop-color:#f0827d;stop-opacity:1;" />
      <stop
         id="stop980"
         offset="1"
         style="stop-color:#f0827d;stop-opacity:0;" />
    </linearGradient>
    <linearGradient
       id="linearGradient923">
      <stop
         id="stop919"
         offset="0"
         style="stop-color:#000000;stop-opacity:1;" />
      <stop
         id="stop921"
         offset="1"
         style="stop-color:#000000;stop-opacity:0;" />
    </linearGradient>
    <linearGradient
       id="linearGradient915">
      <stop
         id="stop911"
         offset="0"
         style="stop-color:#ff6255;stop-opacity:1;" />
      <stop
         id="stop913"
         offset="1"
         style="stop-color:#ff6255;stop-opacity:0;" />
    </linearGradient>
    <linearGradient
       osb:paint="solid"
       id="linearGradient868">
      <stop
         id="stop866"
         offset="0"
         style="stop-color:#000000;stop-opacity:1;" />
    </linearGradient>
    <linearGradient
       osb:paint="gradient"
       id="linearGradient1607">
      <stop
         id="stop1603"
         offset="0"
         style="stop-color:#ff6255;stop-opacity:1" />
      <stop
         id="stop1605"
         offset="1"
         style="stop-color:#da5b51;stop-opacity:0;" />
    </linearGradient>
    <linearGradient
       id="linearGradient6891-7">
      <stop
         style="stop-color:#ff8c8c;stop-opacity:1;"
         offset="0"
         id="stop6887" />
      <stop
         style="stop-color:#ff8c8c;stop-opacity:0;"
         offset="1"
         id="stop6889" />
    </linearGradient>
    <linearGradient
       xlink:href="#linearGradient6891-7"
       id="linearGradient6893"
       x1="116.28441"
       y1="131.06845"
       x2="330.48346"
       y2="131.06845"
       gradientUnits="userSpaceOnUse"
       gradientTransform="matrix(1.0176293,0,0,1.043284,-52.786314,-431.941)" />
    <radialGradient
       gradientUnits="userSpaceOnUse"
       gradientTransform="matrix(1,0,0,1.4006544,0,-10.327923)"
       r="11.343032"
       fy="25.777636"
       fx="25.051212"
       cy="25.777636"
       cx="25.051212"
       id="radialGradient1672"
       xlink:href="#linearGradient923" />
    <linearGradient
       gradientUnits="userSpaceOnUse"
       y2="-360.58929"
       x2="294.47836"
       y1="-366.6369"
       x1="-5.883111"
       id="linearGradient917"
       xlink:href="#linearGradient915" />
    <linearGradient
       gradientTransform="translate(-161.77381,-52.916668)"
       gradientUnits="userSpaceOnUse"
       y2="137.55695"
       x2="1492.8649"
       y1="137.55695"
       x1="956.32697"
       id="linearGradient925"
       xlink:href="#linearGradient923" />
    <radialGradient
       gradientUnits="userSpaceOnUse"
       gradientTransform="matrix(1,0,0,1.4006544,0,-10.327923)"
       r="11.343032"
       fy="25.777636"
       fx="25.051212"
       cy="25.777636"
       cx="25.051212"
       id="radialGradient1672-5"
       xlink:href="#linearGradient923" />
    <radialGradient
       gradientUnits="userSpaceOnUse"
       gradientTransform="matrix(1,0,0,1.4006544,0,-10.327923)"
       r="11.343032"
       fy="25.777636"
       fx="25.051212"
       cy="25.777636"
       cx="25.051212"
       id="radialGradient1672-0"
       xlink:href="#linearGradient923" />
    <radialGradient
       gradientUnits="userSpaceOnUse"
       gradientTransform="matrix(1,0,0,1.4006544,0,-10.327923)"
       r="11.343032"
       fy="25.777636"
       fx="25.051212"
       cy="25.777636"
       cx="25.051212"
       id="radialGradient1672-5-6"
       xlink:href="#linearGradient923" />
    <radialGradient
       gradientUnits="userSpaceOnUse"
       gradientTransform="matrix(1,0,0,1.4006544,0,-10.327923)"
       r="11.343032"
       fy="25.777636"
       fx="25.051212"
       cy="25.777636"
       cx="25.051212"
       id="radialGradient1672-8"
       xlink:href="#linearGradient923" />
    <radialGradient
       gradientUnits="userSpaceOnUse"
       gradientTransform="matrix(1,0,0,1.4006544,0,-10.327923)"
       r="11.343032"
       fy="25.777636"
       fx="25.051212"
       cy="25.777636"
       cx="25.051212"
       id="radialGradient1672-4"
       xlink:href="#linearGradient923" />
    <radialGradient
       gradientUnits="userSpaceOnUse"
       gradientTransform="matrix(1,0,0,1.4006544,0,-10.327923)"
       r="11.343032"
       fy="25.777636"
       fx="25.051212"
       cy="25.777636"
       cx="25.051212"
       id="radialGradient1672-5-62"
       xlink:href="#linearGradient923" />
    <radialGradient
       gradientUnits="userSpaceOnUse"
       gradientTransform="matrix(1,0,0,1.4006544,0,-10.327923)"
       r="11.343032"
       fy="25.777636"
       fx="25.051212"
       cy="25.777636"
       cx="25.051212"
       id="radialGradient1672-3"
       xlink:href="#linearGradient923" />
    <radialGradient
       gradientUnits="userSpaceOnUse"
       gradientTransform="matrix(1,0,0,1.4006544,0,-10.327923)"
       r="11.343032"
       fy="25.777636"
       fx="25.051212"
       cy="25.777636"
       cx="25.051212"
       id="radialGradient1672-5-8"
       xlink:href="#linearGradient923" />
  </defs>
  <metadata
     id="metadata5">
    <rdf:RDF>
      <cc:Work
         rdf:about="">
        <dc:format>image/svg+xml</dc:format>
        <dc:type
           rdf:resource="http://purl.org/dc/dcmitype/StillImage" />
        <dc:title></dc:title>
      </cc:Work>
    </rdf:RDF>
  </metadata>
  <g
     transform="translate(0,703)"
     id="layer1">
    <ellipse
       ry="370.19031"
       rx="374.72604"
       cy="-204.94788"
       cx="496.54874"
       id="path1248"
       style="opacity:1;fill:#f0827d;fill-opacity:1;stroke:none;stroke-width:0.48514199;stroke-opacity:1;paint-order:normal" />
    <ellipse
       ry="310.4397"
       rx="318.18787"
       cy="-205.2093"
       cx="497.71231"
       id="path1202"
       style="opacity:1;fill:#ffffff;fill-opacity:1;stroke:none;stroke-width:0.40441713;stroke-opacity:1;paint-order:normal" />
    <ellipse
       ry="293.89038"
       rx="300.21039"
       cy="-203.42802"
       cx="498.52921"
       id="path1206"
       style="opacity:1;fill:#f0827d;fill-opacity:1;stroke:none;stroke-width:0.32286251;stroke-opacity:1;paint-order:normal" />
    <g
       transform="matrix(7.6031716,0,0,8.5413823,314.96366,-412.81963)"
       id="g1246"
       style="clip-rule:evenodd;fill:#ffffff;fill-rule:evenodd;stroke-linejoin:round;stroke-miterlimit:2">
      <g
         style="fill:#ffffff"
         transform="matrix(0.721351,0,0,0.811444,6.54562,5.10326)"
         id="g1210">
        <path
   style="fill:#ffffff"
   d="m 27.411,7.92 c 0,-0.84 -0.766,-1.521 -1.711,-1.521 0,0 -10e-4,0 -0.002,0 -0.944,0 -1.71,0.681 -1.71,1.521 0,6.129 0,28.987 0,35.117 0,0.84 0.766,1.521 1.71,1.521 0.001,0 0.002,0 0.002,0 0.945,0 1.711,-0.681 1.711,-1.521 0,-6.13 0,-28.988 0,-35.117 z"
   id="path1208" />

    </g>
      <g
         style="fill:#ffffff"
         transform="matrix(5.99295e-4,-0.721351,0.258566,2.14816e-4,18.4279,54.7844)"
         id="g1214">
        <path
   style="fill:#ffffff"
   d="m 27.411,11.171 c 0,-2.635 -0.766,-4.772 -1.711,-4.772 0,0 -10e-4,0 -0.002,0 -0.944,0 -1.71,2.137 -1.71,4.772 0,7.331 0,21.283 0,28.614 0,2.636 0.766,4.773 1.71,4.773 0.001,0 0.002,0 0.002,0 0.945,0 1.711,-2.137 1.711,-4.773 0,-7.331 0,-21.283 0,-28.614 z"
   id="path1212" />

    </g>
      <g
         style="fill:#ffffff"
         transform="matrix(5.99295e-4,-0.721351,0.579332,4.81307e-4,10.2753,38.6396)"
         id="g1218">
        <path
   style="fill:#ffffff"
   d="m 27.411,8.529 c 0,-1.177 -0.766,-2.13 -1.711,-2.13 0,0 -10e-4,0 -0.002,0 -0.944,0 -1.71,0.953 -1.71,2.13 0,6.687 0,27.212 0,33.899 0,1.176 0.766,2.13 1.71,2.13 0.001,0 0.002,0 0.002,0 0.945,0 1.711,-0.954 1.711,-2.13 0,-6.687 0,-27.212 0,-33.899 z"
   id="path1216" />

    </g>
      <g
         style="fill:#ffffff"
         transform="matrix(0.509521,-0.510622,0.393855,0.393005,1.94156,23.2426)"
         id="g1222">
        <path
   style="fill:#ffffff"
   d="m 27.411,8.617 c 0,-1.225 -0.766,-2.218 -1.711,-2.218 0,0 -10e-4,0 -0.002,0 -0.944,0 -1.71,0.993 -1.71,2.218 0,6.747 0,26.976 0,33.723 0,1.225 0.766,2.218 1.71,2.218 0.001,0 0.002,0 0.002,0 0.945,0 1.711,-0.993 1.711,-2.218 0,-6.747 0,-26.976 0,-33.723 z"
   id="path1220" />

    </g>
      <g
         style="fill:#ffffff"
         transform="matrix(-0.51096,-0.509182,0.392744,-0.394115,28.1955,43.2602)"
         id="g1226">
        <path
   style="fill:#ffffff"
   d="m 27.411,8.617 c 0,-1.225 -0.766,-2.218 -1.711,-2.218 0,0 -10e-4,0 -0.002,0 -0.944,0 -1.71,0.993 -1.71,2.218 0,6.747 0,26.976 0,33.723 0,1.225 0.766,2.218 1.71,2.218 0.001,0 0.002,0 0.002,0 0.945,0 1.711,-0.993 1.711,-2.218 0,-6.747 0,-26.976 0,-33.723 z"
   id="path1224" />

    </g>
    </g>
  </g>
</svg>
