<svg id="Layer_1" data-name="Layer 1" xmlns="http://www.w3.org/2000/svg" viewBox="0 0 360 360"><defs><style>.cls-1{fill:#e1ab4c;}</style></defs><g id="Layer_2" data-name="Layer 2"><polygon class="cls-1" points="216.49 159.19 217.18 147.93 179.94 124.71 142.82 147.93 144.36 173.28 244.41 173.28 238.61 268.79 121.37 268.79 118.96 228.84 118.21 216.55 147.01 216.55 147.75 228.84 148.44 240.05 211.54 240.05 213.84 202.01 117.36 202.01 113.1 132.65 179.94 90.8 246.88 132.65 245.28 159.19 216.49 159.19"/><path class="cls-1" d="M241.31,271.65H118.67l-3.51-58h34.55l1.37,23.51h57.83l1.94-32.28H114.64l-4.51-73.74L180,87.41l69.86,43.76-1.88,31H213.44l.77-12.6L180,128.1l-34.15,21.37,1.28,20.88H247.46ZM124,265.92H235.86l5.5-89.77h-99.7l-1.83-29.75L180,121.32l40.16,25.08-.61,9.93h23.1L244,134.18l-64-40-63.87,40,4,65h96.84L214.29,243H145.74l-1.44-23.5h-23Z"/><path class="cls-1" d="M170.5,25.7,59.66,95.11a17.67,17.67,0,0,0-8.28,16.06L63.64,311.88A17.66,17.66,0,0,0,81.31,328.5H278.74a17.68,17.68,0,0,0,17.67-16.62l12.24-200.8A17.69,17.69,0,0,0,300.36,95L189.26,25.7A17.64,17.64,0,0,0,170.5,25.7Zm94.63,277H94.85a6.23,6.23,0,0,1-6.23-5.86L77.7,118.19a6.3,6.3,0,0,1,2.92-5.68l96.06-60.15a6.26,6.26,0,0,1,6.64,0l96.11,60.1a6.22,6.22,0,0,1,2.92,5.67L271.44,296.79A6.25,6.25,0,0,1,265.13,302.65Z"/></g></svg>