<svg width="870" height="289" viewBox="0 0 870 289" fill="none" xmlns="http://www.w3.org/2000/svg">
<path d="M228.156 156.5H242.034C243.063 163.71 248.714 169.38 257.051 169.38C264.35 169.38 269.392 166.08 269.392 160.32C269.392 145.18 230.932 154.04 230.932 127.88C230.932 115.73 242.034 107.59 256.232 107.59C269.392 107.59 280.814 114.9 282.761 128.91H268.983C267.854 123.97 263.122 119.54 256.232 119.54C249.343 119.54 245.02 122.32 245.02 127.26C245.02 140.55 283.38 131.28 283.38 159.5C283.38 172.79 272.587 181.33 257.051 181.33C241.515 181.33 229.494 171.85 228.156 156.51V156.5Z" fill="white"/>
<path d="M290.679 151.97C290.679 134.77 303.02 122.62 320.193 122.62C337.367 122.62 349.707 134.77 349.707 151.97C349.707 169.17 337.267 181.32 320.193 181.32C303.12 181.32 290.679 169.17 290.679 151.97ZM336.438 151.97C336.438 141.26 329.758 133.84 320.193 133.84C310.628 133.84 303.948 141.26 303.948 151.97C303.948 162.68 310.628 170.1 320.193 170.1C329.758 170.1 336.438 162.68 336.438 151.97Z" fill="white"/>
<path d="M447.516 142.91V180.5H434.456V146.2C434.456 138.99 430.033 134.25 423.553 134.25C415.326 134.25 410.283 142.39 410.283 155.88V180.5H397.124V146.2C397.124 138.99 392.801 134.25 386.221 134.25C378.093 134.25 372.951 142.39 372.951 155.88V180.5H359.892V123.44H372.951V133.64C375.318 127.67 381.997 122.62 390.434 122.62C398.871 122.62 406.27 127.36 408.127 134.57C412.75 126.74 420.058 122.62 427.766 122.62C439.588 122.62 447.516 130.65 447.516 142.91Z" fill="white"/>
<path d="M547.261 142.91V180.5H534.201V146.2C534.201 138.99 529.778 134.25 523.298 134.25C515.071 134.25 510.029 142.39 510.029 155.88V180.5H496.869V146.2C496.869 138.99 492.546 134.25 485.966 134.25C477.838 134.25 472.696 142.39 472.696 155.88V180.5H459.637V123.44H472.696V133.64C475.063 127.67 481.742 122.62 490.179 122.62C498.616 122.62 506.015 127.36 507.872 134.57C512.495 126.74 519.803 122.62 527.511 122.62C539.333 122.62 547.261 130.65 547.261 142.91Z" fill="white"/>
<path d="M612.979 154.86H570.305C571.334 164.54 577.404 170.52 586.45 170.52C593.339 170.52 597.972 167.33 599.51 161.77H612.879C610.513 175.47 599.3 181.44 586.041 181.44C567.43 181.44 557.455 166.81 557.455 151.98C557.455 137.15 566.611 122.52 585.422 122.52C604.233 122.52 613.288 136.63 613.288 149.3C613.288 151.87 612.979 154.86 612.979 154.86ZM599.3 145.28C598.991 137.76 593.948 132.2 585.422 132.2C577.814 132.2 572.572 136.94 570.814 145.28H599.3Z" fill="white"/>
<path d="M622.854 180.5V107.58H635.913V180.5H622.854Z" fill="white"/>
<path d="M646.507 108.4C646.507 103.97 649.902 100.57 654.524 100.57C659.147 100.57 662.542 103.97 662.542 108.4C662.542 112.83 659.047 116.12 654.524 116.12C650.001 116.12 646.507 112.83 646.507 108.4ZM648.044 180.5V123.44H661.104V180.5H648.044Z" fill="white"/>
<path d="M726.822 154.86H684.148C685.177 164.54 691.247 170.52 700.293 170.52C707.183 170.52 711.816 167.33 713.353 161.77H726.722C724.356 175.47 713.143 181.44 699.884 181.44C681.273 181.44 671.298 166.81 671.298 151.98C671.298 137.15 680.454 122.52 699.275 122.52C718.096 122.52 727.142 136.63 727.142 149.3C727.142 151.87 726.832 154.86 726.832 154.86H726.822ZM713.143 145.28C712.834 137.76 707.792 132.2 699.265 132.2C691.657 132.2 686.405 136.94 684.658 145.28H713.143Z" fill="white"/>
<path d="M773.719 136.21C771.153 135.28 768.478 134.77 766.111 134.77C757.475 134.77 750.376 142.49 750.376 159.39V180.5H737.316V123.44H750.376V136.31C752.742 127.97 760.041 122.51 767.649 122.51C769.706 122.51 772.481 122.82 773.719 123.64V136.21Z" fill="white"/>
<path d="M144.276 164.5C133.243 164.5 124.307 155.55 124.307 144.5C124.307 133.45 133.243 124.5 144.276 124.5C155.309 124.5 164.245 133.45 164.245 144.5C164.245 155.55 155.309 164.5 144.276 164.5Z" fill="#F26057"/>
<path d="M144.276 164.5C155.305 164.5 164.245 155.546 164.245 144.5C164.245 133.454 155.305 124.5 144.276 124.5C133.248 124.5 124.307 133.454 124.307 144.5C124.307 155.546 133.248 164.5 144.276 164.5Z" fill="#F26057"/>
<path d="M172.233 144.5C172.233 155.55 181.169 164.5 192.202 164.5V124.5C181.169 124.5 172.233 133.45 172.233 144.5Z" fill="#F26057"/>
<path d="M116.32 144.5C116.32 133.45 107.383 124.5 96.3506 124.5V164.5C107.383 164.5 116.32 155.55 116.32 144.5Z" fill="#F26057"/>
<path d="M144.276 116.5C155.309 116.5 164.245 107.55 164.245 96.5H124.307C124.307 107.55 133.243 116.5 144.276 116.5Z" fill="#F26057"/>
<path d="M192.202 116.5V96.5H172.233C172.233 107.55 181.169 116.5 192.202 116.5Z" fill="#F26057"/>
<path d="M116.32 96.5H96.3506V116.5C107.383 116.5 116.32 107.55 116.32 96.5Z" fill="#F26057"/>
<path d="M144.276 172.5C133.243 172.5 124.307 181.45 124.307 192.5H164.245C164.245 181.45 155.309 172.5 144.276 172.5Z" fill="#F26057"/>
<path d="M192.202 172.5C181.169 172.5 172.233 181.45 172.233 192.5H192.202V172.5Z" fill="#F26057"/>
<path d="M96.3506 172.5V192.5H116.32C116.32 181.45 107.383 172.5 96.3506 172.5Z" fill="#F26057"/>
</svg>
