<svg width="48" height="48" viewBox="0 0 48 48" fill="none" xmlns="http://www.w3.org/2000/svg">
<g clip-path="url(#clip0_1870_23486)">
<path d="M0 24C0 37.2548 10.7452 48 24 48C37.2548 48 48 37.2548 48 24C48 10.7452 37.2548 0 24 0C10.7452 0 0 10.7452 0 24Z" fill="#05090F"/>
<path d="M33.1929 28.1061L24.3586 23.7208L24.0064 23.9394L23.7385 23.6792L14.8209 28.1061L14.4688 28.6739L14.6835 29.1741L23.2151 33.4084H24.0064H24.7987L33.3293 29.1741L33.5451 28.6739L33.1929 28.1061Z" fill="#95001A"/>
<path d="M14.4693 28.6743L24.007 33.4088V33.8025L17.8262 36.8712H17.0339L14.4693 35.5797L14.1172 35.0544V29.2422L14.4693 28.6743Z" fill="#40004D"/>
<path d="M33.5426 28.6743L24.0078 33.4088V33.8025L30.1896 36.8712H30.9809L33.5465 35.5797L33.8986 35.0544V29.2422L33.5426 28.6743Z" fill="#520033"/>
<path d="M33.5474 19.2612L33.1953 19.4799V28.1062L33.5436 28.6741L33.8996 29.242L39.6634 32.1036H40.4557L41.5924 31.5318L33.5474 19.2612Z" fill="#FFA80A"/>
<path d="M14.4668 19.2607L14.819 19.4794V28.1058L14.4668 28.6736L14.1147 29.2415L8.34992 32.1031H7.55858L6.42188 31.5313L14.4668 19.2607Z" fill="#FF3417"/>
<path d="M14.4669 35.5797L7.55859 32.1038L14.4669 28.6743V35.5797Z" fill="#6D0044"/>
<path d="M24.0043 40.3793L30.9774 36.8706L24.0043 33.4082L17.0312 36.8706L24.0043 40.3793Z" fill="#6D0074"/>
<path d="M33.5468 35.5797L40.4551 32.1038L33.543 28.6743L33.5468 35.5797Z" fill="#6D0044"/>
<path d="M24.0084 8.3999H21.5898L14.4688 19.261L14.8209 19.4796L24.0064 14.9193V14.5255L24.3586 14.2808L24.3605 8.70754L24.0084 8.3999Z" fill="#FFA80A"/>
<path d="M24.0064 14.5254L14.4688 19.2609V28.6737L24.0064 23.9392L24.3586 23.7206V15.0923L24.0064 14.5254Z" fill="#D7001F"/>
<path d="M24.0058 8.3999H26.4253L33.5464 19.261L33.1943 19.4796L24.356 15.0924L24.0039 14.5255L24.0058 8.3999Z" fill="#FFE50A"/>
<path d="M33.5426 28.6737L24.0039 23.9392V14.5254L33.5426 19.2609V28.6737Z" fill="#EF8109"/>
</g>
<defs>
<clipPath id="clip0_1870_23486">
<rect width="48" height="48" fill="white"/>
</clipPath>
</defs>
</svg>
